<mxfile host="app.diagrams.net" modified="2024-08-29T06:26:26.247Z" agent="Mozilla/5.0 (Windows NT 10.0; Win64; x64; rv:129.0) Gecko/20100101 Firefox/129.0" version="24.6.2" etag="pGGZTd7C9XD0npPSzh7R" type="github">
  <diagram name="Page-1" id="QoDvpPXi3RhinLiQKkWI">
    <mxGraphModel>
      <root>
        <mxCell id="0" />
        <mxCell id="1" parent="0" />
      </root>
    </mxGraphModel>
  </diagram>
</mxfile>
